# xmcd
#
# Track frame offsets:
#	150
#	6305
#	27055
#	44858
#	48093
#	68690
#	87660
#	91363
#	110698
#	128243
#	150643
#	154685
#	170930
#	193523
#
# Disc length: 2845 seconds
#
# Revision: 2
# Processed by: cddbd v1.5.1PL0 Copyright (c) Steve Scherf et al.
# Submitted via: CDmax 2.0
#
DISCID=bc0b1b0e
DTITLE=Four Sure - We Can Swing It
DYEAR=1900
DGENRE=Blues
TTITLE0=Intro:  Rough And Wicked
TTITLE1=What's Your Number
TTITLE2=Innocent Girl
TTITLE3=Find A Way (Interlude)
TTITLE4=Try And Find A Way
TTITLE5=I wanna Be Loved
TTITLE6=Don't Stop Cause I'm In The Shower (Interlude)
TTITLE7=Don't Stop I Like
TTITLE8=Love In My Life
TTITLE9=What's on Your Mind
TTITLE10=Excuse me Do You Have the Four Sure L.P. (Interlude)
TTITLE11=We Can Swing It
TTITLE12=The Way You Love
TTITLE13=It May Not Seem
EXTD=
EXTT0=
EXTT1=
EXTT2=
EXTT3=
EXTT4=
EXTT5=
EXTT6=
EXTT7=
EXTT8=
EXTT9=
EXTT10=
EXTT11=
EXTT12=
EXTT13=Stupid CD
PLAYORDER=
